<svg width="17" height="9" viewBox="0 0 17 9" fill="none" xmlns="http://www.w3.org/2000/svg">
<path fill-rule="evenodd" clip-rule="evenodd" d="M2.26667 1.4H14.7333C15.0339 1.4 15.3222 1.5194 15.5347 1.73194C15.7473 1.94448 15.8667 2.23275 15.8667 2.53333V5.93334C15.8667 6.23391 15.7473 6.52218 15.5347 6.73472C15.3222 6.94727 15.0339 7.06667 14.7333 7.06667H2.26667C1.96609 7.06667 1.67782 6.94727 1.46528 6.73472C1.25274 6.52218 1.13333 6.23391 1.13333 5.93334V2.53333C1.13333 2.23275 1.25274 1.94448 1.46528 1.73194C1.67782 1.5194 1.96609 1.4 2.26667 1.4ZM0 2.53333C0 1.93217 0.238809 1.35564 0.663891 0.930554C1.08897 0.505472 1.66551 0.266663 2.26667 0.266663H14.7333C15.3345 0.266663 15.911 0.505472 16.3361 0.930554C16.7612 1.35564 17 1.93217 17 2.53333V5.93334C17 6.53449 16.7612 7.11103 16.3361 7.53611C15.911 7.96119 15.3345 8.2 14.7333 8.2H2.26667C1.66551 8.2 1.08897 7.96119 0.663891 7.53611C0.238809 7.11103 0 6.53449 0 5.93334V2.53333ZM5.1 3.38333C4.87457 3.38333 4.65837 3.47289 4.49896 3.63229C4.33955 3.7917 4.25 4.0079 4.25 4.23333C4.25 4.45877 4.33955 4.67497 4.49896 4.83437C4.65837 4.99378 4.87457 5.08333 5.1 5.08333C5.32543 5.08333 5.54164 4.99378 5.70104 4.83437C5.86045 4.67497 5.95 4.45877 5.95 4.23333C5.95 4.0079 5.86045 3.7917 5.70104 3.63229C5.54164 3.47289 5.32543 3.38333 5.1 3.38333ZM7.65 4.23333C7.65 4.0079 7.73955 3.7917 7.89896 3.63229C8.05837 3.47289 8.27457 3.38333 8.5 3.38333C8.72543 3.38333 8.94163 3.47289 9.10104 3.63229C9.26045 3.7917 9.35 4.0079 9.35 4.23333C9.35 4.45877 9.26045 4.67497 9.10104 4.83437C8.94163 4.99378 8.72543 5.08333 8.5 5.08333C8.27457 5.08333 8.05837 4.99378 7.89896 4.83437C7.73955 4.67497 7.65 4.45877 7.65 4.23333ZM11.9 3.38333C11.6746 3.38333 11.4584 3.47289 11.299 3.63229C11.1396 3.7917 11.05 4.0079 11.05 4.23333C11.05 4.45877 11.1396 4.67497 11.299 4.83437C11.4584 4.99378 11.6746 5.08333 11.9 5.08333C12.1254 5.08333 12.3416 4.99378 12.501 4.83437C12.6604 4.67497 12.75 4.45877 12.75 4.23333C12.75 4.0079 12.6604 3.7917 12.501 3.63229C12.3416 3.47289 12.1254 3.38333 11.9 3.38333Z" fill="#35363A"/>
</svg>
