<svg viewBox="0 0 17 9" fill="none" xmlns="http://www.w3.org/2000/svg"><path fill-rule="evenodd" clip-rule="evenodd" d="M2.267 1.4h12.466a1.133 1.133 0 0 1 1.134 1.133v3.4a1.133 1.133 0 0 1-1.134 1.134H2.267a1.133 1.133 0 0 1-1.134-1.134v-3.4A1.133 1.133 0 0 1 2.267 1.4zM0 2.533A2.267 2.267 0 0 1 2.267.267h12.466A2.267 2.267 0 0 1 17 2.533v3.4A2.267 2.267 0 0 1 14.733 8.2H2.267A2.267 2.267 0 0 1 0 5.933v-3.4zm5.1.85a.85.85 0 1 0 0 1.7.85.85 0 0 0 0-1.7zm2.55.85a.85.85 0 1 1 1.7 0 .85.85 0 0 1-1.7 0zm4.25-.85a.85.85 0 1 0 0 1.7.85.85 0 0 0 0-1.7z" fill="#35363A"/></svg>