<svg width="21" height="23" viewBox="0 0 21 23" fill="none" xmlns="http://www.w3.org/2000/svg">
<path d="M16.6342 7.81918C16.6342 6.22788 16.002 4.70176 14.8768 3.57654C13.7516 2.45132 12.2255 1.81918 10.6342 1.81918C9.04286 1.81918 7.51673 2.45132 6.39151 3.57654C5.2663 4.70176 4.63416 6.22788 4.63416 7.81918C4.63416 14.8192 1.63416 16.8192 1.63416 16.8192H19.6342C19.6342 16.8192 16.6342 14.8192 16.6342 7.81918Z" stroke="white" stroke-width="2" stroke-linecap="round" stroke-linejoin="round"/>
<path d="M12.3642 20.8192C12.1884 21.1223 11.936 21.3738 11.6324 21.5487C11.3288 21.7236 10.9846 21.8156 10.6342 21.8156C10.2838 21.8156 9.93956 21.7236 9.63595 21.5487C9.33233 21.3738 9.07999 21.1223 8.90417 20.8192" stroke="white" stroke-width="2" stroke-linecap="round" stroke-linejoin="round"/>
</svg>
