<svg viewBox="0 0 20 18" fill="none" xmlns="http://www.w3.org/2000/svg"><path d="M2.889 5a8.117 8.117 0 0 1 3.193-3.03 8.39 8.39 0 0 1 4.348-.959 8.356 8.356 0 0 1 4.221 1.396 8.053 8.053 0 0 1 2.85 3.34M1 2.514l.749 3.16c.127.538.678.874 1.23.75l3.244-.73M17.11 13a8.117 8.117 0 0 1-3.193 3.03 8.39 8.39 0 0 1-4.348.959 8.355 8.355 0 0 1-4.221-1.396 8.053 8.053 0 0 1-2.85-3.34M19 15.486l-.749-3.16a1.027 1.027 0 0 0-1.23-.75l-3.244.73" stroke="#35363A" stroke-width="2" stroke-linecap="round"/></svg>